<?xml version="1.0" encoding="utf-8"?>
<!-- Svg Vector Icons : http://www.onlinewebfonts.com/icon -->
<!DOCTYPE svg PUBLIC "-//W3C//DTD SVG 1.1//EN" "http://www.w3.org/Graphics/SVG/1.1/DTD/svg11.dtd">
<svg version="1.1" xmlns="http://www.w3.org/2000/svg" xmlns:xlink="http://www.w3.org/1999/xlink" x="0px" y="0px" viewBox="0 0 1000 1000" enable-background="new 0 0 1000 1000" xml:space="preserve">
<metadata> Svg Vector Icons : http://www.onlinewebfonts.com/icon </metadata>
<g><path d="M397.7,739.7c37.4,4.4,43.9-55.3,6.6-59.7C366.9,675.7,360.3,735.3,397.7,739.7z"/><path d="M595.4,739.9c37.6,0,37.6-60.1,0-60.1C557.8,679.8,557.8,739.9,595.4,739.9z"/><path d="M499.9,852.3c-22.5,0.2-45.2-4.6-67.7-13.4c-22.6-8.8-44.9-20.9-67.9-35.6c11.1,25.8,30.5,47.3,53.9,63.4c23.5,16,52.4,25.9,82,25.6c29.6-0.1,58.5-10.4,81.7-26.6c23.3-16.2,42-37.6,54.7-62.4c-24.1,13-46.3,25.7-69,34.6C545,846.9,522.4,852.1,499.9,852.3z"/><path d="M781.7,283.4C920.8,157.4,704.1,7.5,704.1,7.5c53.2,90.9,2.4,160.9-30.8,193.4c-99.2-53.7-226.8-56.1-350.3-1.7c-33.7-34.1-81.7-103.6-31.5-191.2c0,0-214.3,146.3-72.5,274.7c-18.7,17.7-80.5,67.5-209.1,95.1c0,0,64.1,95.4,137.2,76c-13.9,84.5-2.4,174.3,31.7,250.3c-7.3,18.9-11.2,38.9-11.2,59.6c0,128.3,148.9,228.8,339.1,228.8c190.2,0,339.1-100.5,339.1-228.8c0-30.9-8.7-60.3-24.5-86.9c0.5-0.9,1.1-1.8,1.5-2.8c29.3-71.3,36.6-148.8,23.5-222.1c75.7,27,143.6-74.1,143.6-74.1C863.1,350.5,801.2,301.7,781.7,283.4z M354.4,263.8c102.4-44.9,256.2-57.1,353.7,56c65.9,78.4,86.8,193.9,55,294.7c-37.5-33.7-89.4-59.4-150.1-73.4c2-7.3,3.1-15.2,3.1-23.5c0-34.9-19-63.2-42.5-63.2c-23.5,0-42.5,28.3-42.5,63.2c0,4.2,0.3,8.3,0.8,12.3c-8.5-0.4-17.1-0.7-25.8-0.7c-23.9,0-47.1,1.7-69.3,4.9c1-5.3,1.5-10.8,1.5-16.5c0-34.9-19-63.2-42.5-63.2c-23.4,0-42.5,28.3-42.5,63.2c0,12.7,2.5,24.6,6.9,34.5c-52.8,17.8-96.9,45.1-127.6,78.8C189.9,498.4,224.3,331.4,354.4,263.8z M506.8,930.5c-148.1,0-273.2-76.4-273.2-166.8c0-13.9,3-27.5,8.6-40.6c4.6-4.4,7.7-10.2,8.6-16.5c39.1-63.3,140.6-109.7,256.1-109.7c148.1,0,273.3,76.4,273.3,166.9C780.1,854.1,654.9,930.5,506.8,930.5z M775.7,288.6c0.6-0.5,1.2-1,1.7-1.5l1.6,5.8C777.9,291.5,776.8,290,775.7,288.6z"/></g>
</svg>